<svg width="533" height="665" viewBox="0 0 533 665" fill="none" xmlns="http://www.w3.org/2000/svg">
<path fill-rule="evenodd" clip-rule="evenodd" d="M526.204 4.75004C522.271 9.08404 418.942 126.899 379.98 171.473C370.846 181.923 359.969 194.523 355.809 199.473C351.649 204.423 338.514 219.439 326.618 232.841C304.335 257.948 302.877 260.194 306.741 263.481C311.276 267.34 401.497 327.973 402.704 327.973C403.723 327.973 424.245 300.831 436.728 282.973C468.603 237.377 492.747 191.415 508.081 147.143C517.175 120.884 524.333 91.106 529.086 59.757C531.275 45.328 533.022 -0.0489603 531.388 3.96534e-05C530.894 0.0150397 528.561 2.15304 526.204 4.75004ZM258.224 119.078C243.027 120.845 216.861 127.707 202.491 133.693C152.856 154.372 112.995 192.136 87.6725 242.473C69.0885 279.413 60.8555 317.774 62.3475 360.473C63.5885 396.002 70.2455 424.889 83.7245 453.223C86.7985 459.685 89.5785 464.971 89.9025 464.968C90.4515 464.964 100.422 454.315 107.982 445.657L111.314 441.841L107.141 428.657C100.875 408.858 98.6995 398.639 98.5885 388.473C98.5045 380.753 98.8465 378.762 100.991 374.474C103.909 368.64 108.088 365.547 115.077 364.048C118.073 363.405 133.25 362.973 152.812 362.973H185.535L193.763 354.702C198.288 350.153 201.991 346.103 201.991 345.702C201.991 345.301 182.037 344.973 157.648 344.973H113.306L108.898 342.645C106.004 341.117 103.461 338.655 101.491 335.474C98.7225 331.004 98.4935 329.929 98.5285 321.551C98.6545 291.615 118.022 246.714 143.206 217.973C156.51 202.79 165.114 196.633 173.069 196.605C180.269 196.579 183.591 199.209 191.891 211.508C228.345 265.52 247.837 293.232 249.031 292.743C249.393 292.594 252.267 289.674 255.419 286.254L261.15 280.034L251.404 265.754C246.045 257.899 236.859 244.498 230.991 235.973C200.437 191.58 198.991 189.245 198.991 184.308C198.991 173.737 207.702 167.068 232.2 158.888C250.402 152.809 261.013 150.902 280.124 150.273C306.375 149.409 324.505 152.371 347.743 161.321L356.348 164.635L358.991 161.554C360.445 159.859 364.71 154.648 368.47 149.973C372.23 145.298 375.954 140.715 376.745 139.788C378.043 138.267 377.706 137.863 373.262 135.611C360.218 129.001 332.903 121.479 313.017 119.02C303.193 117.806 268.85 117.842 258.224 119.078ZM281.605 184.061C276.815 187.829 276.302 190.172 275.707 210.973C275.08 232.845 275.716 236.502 280.965 241.223C286.731 246.409 295.682 244.339 299.511 236.934C301.664 232.77 301.664 193.176 299.511 189.012C297.154 184.454 293.27 181.973 288.491 181.973C285.715 181.973 283.347 182.691 281.605 184.061ZM454.98 197.467C458.651 199.365 460.991 202.692 460.991 206.01C460.991 207.787 456.223 215.025 445.821 229.037C437.477 240.277 425.497 256.448 419.199 264.973C412.901 273.498 406.792 281.25 405.62 282.201C402.052 285.096 397.279 284.461 393.391 280.573C388.613 275.795 388.687 271.116 393.636 264.973C395.629 262.498 407.139 247.323 419.212 231.251C431.285 215.179 442.714 200.667 444.611 199.001C448.468 195.614 450.745 195.277 454.98 197.467ZM488.991 261.234C484.866 265.219 479.349 271.006 476.73 274.096L471.969 279.714L474.447 289.093C479.532 308.332 481.078 322.518 478.931 330.25C477.618 334.98 472.846 340.496 467.876 343.032C464.4 344.805 461.836 344.973 438.227 344.973H412.383L409.327 348.223C407.647 350.011 404.395 354.06 402.1 357.223L397.928 362.973L428.709 362.997C461.286 363.023 466.457 363.566 471.618 367.503C481.234 374.837 481.668 389.636 473.132 419.072C465.292 446.108 445.931 478.314 426.186 497.167C416.21 506.694 411.977 508.974 404.28 508.969C394.726 508.963 390.974 505.581 378.762 485.973C375.165 480.198 365.812 465.573 357.978 453.473C350.143 441.373 343.233 430.685 342.621 429.723C342.009 428.761 341.189 427.973 340.796 427.973C339.45 427.973 329.991 440.442 329.991 442.216C329.991 444.13 337.151 455.82 358.017 487.973C375.441 514.821 376.951 517.577 376.973 522.573C377.01 530.998 370.121 536.753 352.678 542.87C312.285 557.036 273.979 558.525 237.648 547.343C223.367 542.948 225.431 541.848 217.818 557.917L211.145 572.001L213.818 573.373C217.644 575.338 232.289 579.847 240.491 581.587C269.752 587.794 305.916 587.513 336.951 580.838C361.827 575.487 395.276 561.56 415.491 548.137C427.851 539.929 441.787 528.077 453.235 516.037C469.633 498.791 479.782 484.215 490.533 462.473C503.241 436.771 510.936 409.88 514.613 378.327C518.478 345.16 513.86 299.701 503.654 270.473C501.098 263.155 497.267 253.967 496.777 253.982C496.619 253.987 493.116 257.25 488.991 261.234ZM159.872 269.476C157.054 271.008 153.991 276.443 153.991 279.914C153.991 285.127 157.747 289.61 167.193 295.672C200.477 317.03 206.123 319.846 212.078 318.064C217.262 316.512 219.258 313.803 219.771 307.618C220.174 302.758 219.934 301.979 217.031 298.672C215.281 296.68 212.195 294.04 210.171 292.807C208.147 291.573 202.094 287.707 196.719 284.215C175.642 270.519 170.901 267.971 166.576 268.013C164.329 268.035 161.313 268.693 159.872 269.476ZM283.996 282.241C269.309 300.027 192.944 385.974 186.109 392.41C184.394 394.025 182.991 395.649 182.991 396.018C182.991 396.387 189.535 401.815 197.533 408.081C205.531 414.346 213.069 420.256 214.283 421.213C216.325 422.823 216.866 422.838 221.491 421.416C241.182 415.359 263.628 420.86 286.672 437.388C291.721 441.01 296.075 443.973 296.348 443.973C297.153 443.973 320.601 416.599 332.316 401.981C345.208 385.895 360.253 363.65 365.944 352.259C369.986 344.168 370.968 339.598 369.59 335.276C369.157 333.917 361.182 327.742 348.689 319.091C337.58 311.398 319.73 298.999 309.022 291.538C298.315 284.077 289.09 277.981 288.522 277.991C287.955 278.001 285.917 279.913 283.996 282.241ZM371.313 394.5C365.071 399.42 364.641 407.376 370.309 413.059C374.869 417.63 405.565 437.765 410.001 439.094C421.498 442.539 430.956 429.027 423.363 420.004C421.169 417.396 391.506 396.996 384.306 393.142C380.567 391.141 374.812 391.742 371.313 394.5ZM157.91 423.298C153.28 428.427 143.416 439.118 135.991 447.056C128.566 454.994 111.973 473.185 99.1175 487.481C86.2615 501.777 72.7375 516.623 69.0635 520.473C65.3885 524.323 55.9005 534.673 47.9785 543.473C40.0565 552.273 29.4605 563.973 24.4315 569.473C8.99252 586.359 3.38351 595.092 1.11551 605.772C-4.31549 631.348 10.5315 655.92 35.9225 663.378C42.6835 665.364 48.6425 665.379 56.9035 663.432C75.7165 658.997 89.0615 643.798 92.4435 622.952C95.7285 602.713 98.5535 596.485 110.987 582.073C116.881 575.241 165.961 521.268 202.241 481.722C213.654 469.282 222.991 458.78 222.991 458.385C222.991 457.989 221.101 456.047 218.792 454.069C212.529 448.706 167.59 413.973 166.913 413.973C166.592 413.973 162.54 418.169 157.91 423.298ZM171.039 461.226C180.208 467.406 180.59 479.718 171.815 486.258C167.698 489.327 159.921 489.711 155.626 487.056C151.992 484.81 147.991 478.034 147.991 474.125C147.991 470.332 150.538 465.577 154.376 462.207C157.438 459.519 158.874 458.973 162.878 458.973C166.22 458.973 168.719 459.663 171.039 461.226ZM290.4 473.865C286.054 476.516 277.034 485.729 275.922 488.655C275.41 490.001 274.991 495.882 274.991 501.722C274.991 510.26 275.379 513.143 276.97 516.429C281.802 526.411 294.559 526.542 299.048 516.657C300.689 513.041 300.95 509.984 300.969 494.157C300.982 483.399 300.564 475.043 299.956 473.907C298.624 471.418 294.443 471.4 290.4 473.865ZM55.1565 603.44C66.1645 610.92 66.2005 626.354 55.2255 633.137C50.7365 635.911 42.9855 636.137 38.2365 633.633C33.8945 631.344 29.8645 625.034 29.2475 619.56C27.7105 605.926 43.9475 595.823 55.1565 603.44Z" fill="white"/>
</svg>
